<?xml version="1.0" encoding="UTF-8" standalone="no"?>
<!-- Created with Inkscape (http://www.inkscape.org/) -->

<svg
   width="154.31325mm"
   height="148.20596mm"
   viewBox="0 0 154.31325 148.20596"
   version="1.1"
   id="svg1"
   sodipodi:docname="lab_icon.svg"
   xml:space="preserve"
   inkscape:version="1.3 (0e150ed6c4, 2023-07-21)"
   xmlns:inkscape="http://www.inkscape.org/namespaces/inkscape"
   xmlns:sodipodi="http://sodipodi.sourceforge.net/DTD/sodipodi-0.dtd"
   xmlns="http://www.w3.org/2000/svg"
   xmlns:svg="http://www.w3.org/2000/svg"><sodipodi:namedview
     id="namedview1"
     pagecolor="#ffffff"
     bordercolor="#000000"
     borderopacity="0.25"
     inkscape:showpageshadow="2"
     inkscape:pageopacity="0.0"
     inkscape:pagecheckerboard="0"
     inkscape:deskcolor="#d1d1d1"
     inkscape:document-units="mm"
     inkscape:zoom="1"
     inkscape:cx="281.5"
     inkscape:cy="253.5"
     inkscape:window-width="1448"
     inkscape:window-height="1237"
     inkscape:window-x="206"
     inkscape:window-y="59"
     inkscape:window-maximized="0"
     inkscape:current-layer="layer1"
     showgrid="false"><inkscape:grid
       id="grid356"
       units="mm"
       originx="-105.2698"
       originy="-139.35609"
       spacingx="0.99999998"
       spacingy="1"
       empcolor="#0099e5"
       empopacity="0.30196078"
       color="#0099e5"
       opacity="0.14901961"
       empspacing="5"
       dotted="false"
       gridanglex="30"
       gridanglez="30"
       visible="false" /></sodipodi:namedview><defs
     id="defs1" /><g
     inkscape:groupmode="layer"
     id="layer3"
     inkscape:label="Camada 3"
     transform="translate(-27.852634,-36.8713)"><ellipse
       style="fill:#cb3c33;fill-opacity:0.701887;stroke-width:0.264583"
       id="path349"
       cx="105.43977"
       cy="73.584854"
       rx="35.95396"
       ry="36.713554" /></g><g
     inkscape:groupmode="layer"
     id="layer2"
     inkscape:label="Camada 2"
     transform="translate(-27.852634,-36.8713)"><ellipse
       style="fill:#389826;fill-opacity:0.70566;stroke-width:0.264583"
       id="path349-9-9"
       cx="146.2119"
       cy="147.99869"
       rx="35.95396"
       ry="36.713554" /><path
       style="fill:#000000;stroke-width:0.761257"
       d="m 165.56035,171.67512 c -0.46899,-0.10043 -1.29623,-0.40108 -1.68422,-0.61218 l -0.44243,-0.24074 -5.89705,-5.93517 -5.89704,-5.93517 0.0449,-0.11787 c 0.0247,-0.0648 0.17952,-0.18783 0.34408,-0.2733 0.16457,-0.0855 0.37085,-0.22107 0.4584,-0.30126 0.0876,-0.0803 0.38883,-0.32272 0.6695,-0.53892 1.56965,-1.20898 3.46168,-3.21303 4.56674,-4.83707 0.19495,-0.28651 0.39611,-0.53753 0.44702,-0.55783 l 0.0926,-0.037 5.79938,5.84778 5.79941,5.84778 0.28923,0.43833 0.28925,0.43831 0.22892,0.63504 0.22893,0.63505 0.0385,0.88354 0.0385,0.88355 -0.17868,0.54116 c -0.0983,0.29764 -0.30163,0.75254 -0.45188,1.0109 l -0.27318,0.46977 -0.45436,0.4579 -0.45436,0.4579 -0.484,0.28589 c -0.2662,0.15723 -0.70148,0.35783 -0.96731,0.44578 l -0.48331,0.15989 -0.75495,-0.01 c -0.41523,-0.005 -0.82584,-0.0244 -0.91248,-0.043 z m 1.81161,-0.21487 c 0.2166,-0.0585 0.64902,-0.23623 0.96092,-0.39495 l 0.5671,-0.28859 0.50797,-0.47889 0.50799,-0.4789 0.31584,-0.61359 c 0.17373,-0.33747 0.37699,-0.82673 0.45171,-1.08722 l 0.13586,-0.47365 -0.048,-0.71705 -0.048,-0.71706 -0.19042,-0.56683 c -0.10476,-0.31176 -0.2885,-0.74042 -0.40836,-0.95256 l -0.21791,-0.38573 -5.8428,-5.9026 -5.84282,-5.90261 -0.46545,0.65459 c -0.25601,0.36003 -0.54202,0.76577 -0.63558,0.90166 -0.8318,1.2081 -3.28377,3.51986 -4.82322,4.5474 l -0.42493,0.28363 5.85974,5.89144 5.85974,5.89142 0.46029,0.25561 c 0.39791,0.22095 1.04558,0.4606 1.58761,0.58746 0.0866,0.0203 0.42336,0.0405 0.74827,0.0451 l 0.59074,0.008 z m -28.86749,-12.24491 c -2.69668,-0.24652 -6.60168,-1.51426 -7.94533,-2.57942 -0.10378,-0.0823 -0.23712,-0.14962 -0.29626,-0.14962 -0.0592,0 -0.10749,-0.0291 -0.10749,-0.0648 0,-0.0356 -0.15064,-0.1497 -0.33475,-0.25352 -0.70416,-0.39704 -2.50388,-1.93559 -3.24383,-2.77308 -0.13284,-0.15036 -0.45421,-0.51398 -0.71413,-0.80805 -1.18888,-1.34505 -2.6532,-3.85236 -3.14778,-5.38986 -0.0769,-0.23913 -0.18656,-0.54194 -0.24365,-0.67292 -0.1954,-0.44832 -0.57897,-2.14286 -0.78888,-3.48516 l -0.20986,-1.3419 0.0414,-1.43639 0.0414,-1.4364 0.20359,-1.19071 c 0.26546,-1.55259 0.76084,-3.30887 1.24267,-4.40559 0.3177,-0.72313 1.14783,-2.30425 1.25029,-2.38139 0.029,-0.0219 0.11497,-0.16211 0.19108,-0.31173 0.72753,-1.4303 3.04279,-3.91014 4.70799,-5.04262 0.24909,-0.16941 0.4529,-0.32968 0.4529,-0.35615 0,-0.0264 0.13281,-0.11878 0.29512,-0.2051 0.16231,-0.0864 0.52562,-0.29722 0.80734,-0.46863 1.95706,-1.19079 3.99582,-1.90524 6.6953,-2.34628 l 1.45716,-0.23807 1.2152,-6.8e-4 1.2152,-6.8e-4 1.30529,0.20921 c 2.11904,0.33964 3.76604,0.82826 5.338,1.58367 0.86524,0.4158 0.83189,0.39786 1.48087,0.79632 0.25991,0.15958 0.59464,0.35999 0.7438,0.44535 0.14918,0.0853 0.41502,0.27288 0.59074,0.41674 0.17574,0.14385 0.44358,0.336 0.5952,0.427 0.55107,0.33076 2.74143,2.47388 3.11753,3.05032 0.10782,0.16521 0.2568,0.3618 0.33113,0.43688 0.0744,0.0751 0.33216,0.44001 0.57293,0.81095 1.70582,2.62803 2.59182,4.89881 3.04361,7.80062 l 0.13875,0.89119 3.5e-4,1.86542 3.5e-4,1.86543 -0.14379,0.87319 c -0.36029,2.18797 -0.79976,3.57427 -1.77407,5.59628 -0.47957,0.99526 -1.10278,2.0646 -1.39889,2.40027 -0.0872,0.0987 -0.32038,0.41178 -0.51834,0.69556 -0.83783,1.20105 -2.71793,2.96674 -4.27536,4.01519 -0.43321,0.29163 -0.87626,0.59111 -0.98457,0.66552 -1.34936,0.92702 -4.35921,1.98974 -6.65566,2.35 l -0.78766,0.12355 -1.5753,0.0262 c -0.86642,0.0145 -1.73481,0.0116 -1.92976,-0.006 z m 4.13518,-0.30113 c 3.37386,-0.50587 7.31645,-2.29371 9.29277,-4.21396 0.0899,-0.0873 0.35736,-0.33334 0.59444,-0.54672 1.78376,-1.60548 3.98324,-4.82191 4.5658,-6.67686 0.0549,-0.17464 0.12601,-0.35324 0.15815,-0.39689 0.20324,-0.27613 0.76016,-2.4543 0.99452,-3.88963 l 0.14256,-0.87317 -0.002,-1.74637 -0.002,-1.74636 -0.13322,-0.83349 c -0.51561,-3.22578 -1.61488,-5.88282 -3.51946,-8.50678 l -0.59075,-0.81388 -1.10271,-1.11457 -1.10271,-1.11455 -0.76532,-0.57579 c -0.4209,-0.3167 -1.1298,-0.79979 -1.57529,-1.07355 -1.17458,-0.72176 -1.72762,-0.98292 -3.64555,-1.72151 -0.70168,-0.27021 -2.17371,-0.61498 -3.57157,-0.83652 l -1.36613,-0.2165 -1.2725,0.039 -1.27251,0.039 -0.98456,0.16837 c -2.61553,0.44728 -5.29361,1.39869 -6.77382,2.40647 -0.15162,0.10328 -0.40447,0.26346 -0.56187,0.35609 -0.1574,0.0926 -0.6923,0.47428 -1.18864,0.84812 l -0.90245,0.67973 -0.93961,0.94422 -0.9396,0.94424 -0.72112,0.9565 c -0.39661,0.52608 -0.77733,1.06608 -0.84603,1.19998 -0.0687,0.13392 -0.21676,0.37842 -0.329,0.54334 -0.56966,0.8371 -1.55421,3.14016 -1.84239,4.30974 -0.0808,0.3281 -0.18382,0.69415 -0.22883,0.81348 -0.0451,0.11931 -0.18908,0.91354 -0.32016,1.76494 l -0.23831,1.54803 v 1.06129 1.0613 l 0.12265,0.70498 c 0.0675,0.38773 0.16982,1.02646 0.2275,1.41938 0.16036,1.09253 0.73769,3.09234 1.15727,4.00869 0.73541,1.60613 1.38768,2.7303 2.29272,3.95146 l 0.57134,0.77089 1.10391,1.11171 1.10392,1.11169 0.80959,0.59535 c 2.86082,2.1038 5.87961,3.29034 9.27906,3.64719 l 0.6998,0.0735 1.41777,-0.0317 1.41778,-0.0316 z m -3.89888,-4.30482 c -3.68019,-0.34387 -7.32844,-2.34315 -9.61162,-5.26728 -0.22157,-0.28379 -0.44492,-0.56956 -0.49633,-0.63505 -0.88447,-1.1269 -1.95872,-3.69965 -2.30957,-5.53127 l -0.11889,-0.62067 -0.0403,-1.54792 -0.0404,-1.5479 0.12659,-0.90369 c 0.85157,-6.0799 5.69161,-10.97992 11.72495,-11.87026 l 0.84911,-0.1253 h 1.25838 1.25837 l 0.80683,0.12107 c 6.06273,0.9098 10.57328,5.45602 11.73281,11.82561 l 0.10115,0.55566 -0.003,1.5876 -0.003,1.58761 -0.21381,1.03626 c -1.27394,6.17459 -5.96387,10.5255 -12.184,11.30325 l -0.66744,0.0834 -0.94726,-0.0127 c -0.52098,-0.006 -1.0713,-0.0243 -1.22292,-0.0384 z m 3.46568,-0.29623 c 0.99487,-0.17391 1.36614,-0.26737 2.26225,-0.56952 l 0.81275,-0.27404 0.84516,-0.43805 c 2.0573,-1.06632 4.29606,-2.90545 4.85131,-3.98537 0.0622,-0.12103 0.20885,-0.32395 0.32582,-0.45094 0.80875,-0.87806 1.89852,-3.44706 2.28346,-5.38295 l 0.20079,-1.0098 0.0474,-0.9747 0.0473,-0.97469 -0.0865,-0.84922 c -0.27183,-2.66945 -1.50649,-5.86968 -2.80236,-7.26373 -0.0894,-0.0962 -0.28667,-0.3284 -0.4383,-0.51596 -2.01713,-2.49531 -5.2863,-4.31923 -8.56843,-4.78048 l -0.88882,-0.1249 -1.04093,10e-4 -1.04094,0.001 -0.86159,0.11555 c -1.57198,0.21083 -3.1861,0.74979 -4.65945,1.55582 l -0.91061,0.49816 -0.64367,0.49703 c -3.11396,2.40455 -5.02191,5.60553 -5.52601,9.271 l -0.11926,0.86715 10e-4,1.07766 0.001,1.07766 0.11569,0.82018 c 0.28755,2.03882 1.40911,4.92774 2.33132,6.00506 0.11279,0.13177 0.29768,0.38879 0.41088,0.57117 1.57422,2.53628 5.7048,4.86638 9.4742,5.34447 l 0.54315,0.0688 1.18148,-0.0307 1.18148,-0.0307 z m -12.97627,-13.7648 c -0.022,-0.0577 -10e-4,-0.51261 0.0456,-1.01101 l 0.0855,-0.90618 0.2064,-0.77664 c 1.04516,-3.9327 3.90986,-6.80626 7.82098,-7.84516 l 0.76133,-0.20223 0.93116,-0.0909 0.93114,-0.0909 0.0683,0.11137 0.0684,0.11136 -0.0219,1.51138 -0.0219,1.51139 -0.70194,0.0603 -0.70194,0.0604 -0.6695,0.20373 c -1.53744,0.46785 -3.3458,1.66469 -3.9313,2.60189 -0.0855,0.1369 -0.2614,0.39835 -0.39081,0.58098 -0.70618,0.99659 -1.18032,2.46495 -1.28974,3.99415 l -0.0199,0.27784 -1.56504,0.001 -1.56502,0.001 z m 3.05243,-0.43418 c 0.007,-3.67379 3.65955,-7.35536 7.30489,-7.3619 l 0.33476,-5.9e-4 v -1.46853 -1.46854 l -0.0984,0.001 c -2.05557,0.0287 -5.72722,1.41684 -6.51784,2.46416 -0.0216,0.0287 -0.20825,0.19867 -0.41467,0.37775 -2.00217,1.73698 -3.48482,4.97587 -3.52222,7.69441 l -0.001,0.0993 h 1.45716 1.45716 z"
       id="path355" /></g><g
     inkscape:label="Camada 1"
     inkscape:groupmode="layer"
     id="layer1"
     transform="translate(-27.852634,-36.8713)"><ellipse
       style="fill:#4063d8;fill-opacity:0.698113;stroke-width:0.264583"
       id="path349-9"
       cx="63.806595"
       cy="148.36371"
       rx="35.95396"
       ry="36.713554"
       inkscape:label="path349-9" /><path
       style="fill:#000000;stroke-width:1.10871"
       d="m 59.252264,167.93787 c -0.933456,-0.22391 -2.610071,-0.85981 -3.72581,-1.41308 l -2.028669,-1.00595 -1.874224,-1.72102 -1.874225,-1.72102 -0.992198,-1.76713 c -0.545719,-0.97192 -1.204281,-2.51044 -1.463486,-3.41897 l -0.471286,-1.65184 v -1.87854 -1.87852 l 0.951662,-2.65198 0.951661,-2.65196 2.249462,-3.93373 c 2.484167,-4.34416 6.753178,-10.64476 10.317667,-15.22771 l 2.317279,-2.97941 0.377334,0.006 0.377319,0.006 3.24524,4.35835 c 6.29884,8.45939 10.702048,15.63523 12.447293,20.28519 l 0.918424,2.44703 v 2.1874 2.18741 l -0.475426,1.62928 c -0.26147,0.89611 -0.921388,2.38777 -1.466491,3.31479 l -0.991108,1.68549 -2.026459,1.80887 -2.026431,1.80892 -1.888193,0.88469 c -1.03851,0.4866 -2.709561,1.07567 -3.713436,1.30908 l -1.825228,0.42437 -2.806757,-0.0182 -2.806758,-0.0182 z m 9.34896,-0.65491 c 5.334398,-1.47129 9.198222,-4.86316 11.043348,-9.6944 l 0.694121,-1.81752 0.0084,-2.17635 0.0084,-2.17635 -0.934631,-2.49021 c -1.109335,-2.95565 -4.080659,-8.37256 -6.8123,-12.41923 -2.553929,-3.7834 -8.415336,-11.64043 -8.683839,-11.64043 -0.276474,0 -5.979425,7.65265 -8.571472,11.50185 -2.516679,3.7373 -6.096169,10.17991 -7.006301,12.61048 l -0.674587,1.80148 -0.152892,1.98041 -0.152891,1.98041 0.383165,1.484 c 0.210726,0.8162 0.867009,2.39724 1.458409,3.51344 l 1.075259,2.02944 1.808811,1.61461 c 2.109729,1.88325 4.03074,2.95383 6.83982,3.81185 l 2.018138,0.61644 2.839268,0.007 2.839296,0.007 z m -6.2301,-3.53166 c -0.02615,-0.35507 1.418418,-8.6571 1.689844,-9.71246 l 0.160372,-0.6236 h -2.95551 -2.955523 v -0.51414 c 0,-0.28277 0.908174,-2.90102 2.018152,-5.81834 2.415287,-6.34794 2.3797,-5.56949 0.310481,-6.79589 -1.655962,-0.98145 -2.118146,-1.53624 -1.319572,-1.58391 1.000072,-0.0598 7.539353,0.0785 7.632032,0.16109 0.05776,0.0515 -0.465721,2.41864 -1.163226,5.26027 -0.697505,2.84163 -1.268155,5.22152 -1.268155,5.28868 0,0.0672 1.327318,0.12212 2.949595,0.12212 h 2.949595 l 0.0055,0.20786 c 0.0028,0.11435 -1.637729,3.34741 -3.644611,7.18467 l -3.64889,6.97678 -0.15243,0.17695 -0.198853,0.0858 -0.214725,0.0545 -0.168315,-0.13608 z m 4.53732,-8.49629 c 1.418627,-2.72278 2.579322,-4.9989 2.579322,-5.05805 0,-0.0592 -1.192003,-0.10749 -2.64886,-0.10749 h -2.648889 l -0.176829,-0.41136 -0.176845,-0.41138 1.218823,-4.92382 1.21885,-4.92384 -1.508384,-0.0841 c -0.829617,-0.0464 -2.159271,-0.0464 -2.954811,0 l -1.446411,0.0841 1.301574,0.76611 1.30159,0.76611 v 0.48907 c 0,0.269 -0.908175,2.91391 -2.018154,5.87759 -1.109978,2.96365 -2.018138,5.42326 -2.018138,5.46576 0,0.0426 1.152669,0.0793 2.561494,0.0815 1.408839,0.002 2.730256,0.0999 2.936521,0.21701 l 0.375012,0.21275 -0.602238,3.31671 c -0.331218,1.82416 -1.335861,6.19548 -1.333778,6.57657 l 0.08865,0.0565 c 0.198463,-0.30486 2.532633,-5.26696 3.95126,-7.98972 z"
       id="path317"
       sodipodi:nodetypes="cscccsscccccsscccsscccsscccsscccccscccssssscccsscsscccccscccssssssssccscccccccssccccccccccssscccscccc" /><path
       style="fill:#000000;stroke-width:0.463778"
       d="m 85.879989,95.740215 c 0,-0.141974 0.877474,-3.339701 1.949953,-7.106058 1.07248,-3.766357 2.399291,-8.429386 2.948476,-10.362287 l 0.998534,-3.514363 v -0.488061 -0.488061 l -0.41335,-0.0693 c -0.549789,-0.09218 -1.152883,-0.463559 -1.397969,-0.860857 l -0.199013,-0.32261 v -1.628007 -1.628006 l 0.119728,-0.06202 0.119716,-0.06202 0.815741,0.658813 0.815741,0.658813 0.974344,0.399745 0.974355,0.399746 0.845561,0.136249 0.845561,0.136251 1.027268,-0.07279 1.027257,-0.07279 0.90782,0.399905 0.907831,0.399905 0.971967,0.172572 0.97198,0.172571 0.81968,-0.06781 c 0.45082,-0.03729 1.13316,-0.145837 1.51628,-0.241215 l 0.69661,-0.173414 0.76208,0.13275 c 2.211,0.385141 4.29384,-0.0554 6.10333,-1.290903 l 0.73247,-0.50012 0.51472,-0.07824 c 0.2831,-0.04303 0.83058,-0.175964 1.21662,-0.295402 l 0.70188,-0.21716 0.13576,0.07034 0.13575,0.07034 -5.1e-4,1.088771 -5.1e-4,1.08877 -0.13243,0.399607 -0.13242,0.399607 -0.3694,0.295425 c -0.20318,0.162483 -0.53526,0.347948 -0.73797,0.412141 l -0.36856,0.116716 4.2e-4,0.536437 4.4e-4,0.536437 0.74034,2.584021 c 3.00787,10.498431 5.15576,18.142771 5.15576,18.349298 v 0.244423 H 102.23115 85.88047 Z m 32.367431,-0.106996 c -0.0316,-0.07724 -0.45013,-1.530752 -0.93005,-3.230026 -0.47991,-1.699275 -1.80906,-6.375793 -2.95366,-10.392261 l -2.08108,-7.30267 -1.6e-4,-0.593357 -1.5e-4,-0.593358 0.23454,-0.05881 c 0.54679,-0.137108 0.91727,-0.356348 1.20318,-0.711994 l 0.30457,-0.378859 v -1.101141 -1.10114 l -0.43558,0.15022 c -0.23956,0.08262 -0.70445,0.187378 -1.03307,0.232792 l -0.5975,0.08257 -0.7881,0.534561 c -0.92698,0.628761 -1.91706,1.055664 -2.99327,1.290653 l -0.77588,0.169408 h -0.9034 c -0.49687,0 -1.20799,-0.05476 -1.58028,-0.121689 l -0.67688,-0.12169 -0.84603,0.177865 -0.84603,0.177864 h -1.06895 -1.06897 L 99.618551,72.5692 c -0.435658,-0.09513 -1.157909,-0.335783 -1.604997,-0.534794 l -0.812886,-0.36184 -0.668018,0.08749 -0.668028,0.08749 -0.737116,-0.06435 c -1.706961,-0.148995 -3.242602,-0.710801 -4.405504,-1.61172 l -0.687338,-0.532485 v 1.274319 1.27432 l 0.189845,0.380872 0.189834,0.380874 0.349613,0.192028 c 0.192274,0.105614 0.544092,0.225215 0.781813,0.265778 l 0.432211,0.07375 0.0394,0.808815 0.0394,0.808816 -2.839359,9.97241 c -1.561644,5.484826 -2.884739,10.13672 -2.940204,10.337544 l -0.100855,0.365133 h 16.064328 16.06432 z M 99.634984,70.224134 c -0.713252,-0.25065 -1.232303,-0.546705 -1.641343,-0.936193 l -0.149347,-0.142212 -0.453747,0.156693 c -0.249564,0.08618 -0.766366,0.191862 -1.148451,0.234848 l -0.694715,0.07815 -0.779529,-0.133198 C 94.3391,69.408962 93.699526,69.21864 93.346566,69.059282 l -0.641757,-0.28974 -0.54295,-0.493776 -0.54294,-0.493775 -0.356564,-0.637595 -0.356552,-0.637597 v -1.067312 -1.067314 l 0.38879,-0.705778 0.388791,-0.705778 0.786648,-0.610514 0.786626,-0.610514 0.882534,-0.228504 c 0.485392,-0.125677 0.966631,-0.228503 1.069434,-0.228503 h 0.186913 v -0.276658 c 0,-0.152161 0.125738,-0.558365 0.279417,-0.902674 l 0.279406,-0.626018 0.718187,-0.650284 0.718188,-0.650284 0.522611,-0.197552 0.5226,-0.197552 0.227165,-0.604113 0.227165,-0.604113 0.526686,-0.558553 c 0.641416,-0.680234 1.458796,-1.16634 2.390906,-1.421919 l 0.70016,-0.191973 1.03741,0.05034 1.03741,0.05034 0.83669,0.373838 0.83671,0.373838 0.4331,0.405566 c 0.23822,0.22306 0.53206,0.531503 0.653,0.685428 l 0.21987,0.279863 0.38322,-0.252486 c 0.21078,-0.138866 0.68478,-0.386489 1.05334,-0.550273 l 0.67011,-0.297788 0.89306,-0.05396 0.89306,-0.05396 0.15444,-0.519255 c 0.21333,-0.717252 0.67609,-1.344537 1.41056,-1.912056 l 0.62259,-0.481086 0.74977,-0.287747 0.74977,-0.287747 0.94898,-0.0092 c 0.52194,-0.0051 1.10562,0.02689 1.29709,0.07095 l 0.34813,0.08011 0.16607,-0.475321 c 0.24686,-0.706608 0.7187,-1.328834 1.41655,-1.868069 l 0.62253,-0.481031 0.62665,-0.235215 0.62665,-0.235216 1.13918,-0.04642 1.13918,-0.04642 0.80413,0.25373 0.80414,0.25373 0.81586,0.683924 0.81585,0.683925 0.30908,0.674092 0.30908,0.674093 v 0.89879 0.898791 l -0.2945,0.64057 -0.29451,0.640572 -0.61141,0.570064 c -0.33627,0.313536 -0.87582,0.699962 -1.19899,0.858726 -0.32317,0.158763 -0.58682,0.296496 -0.58589,0.306072 0.001,0.0096 0.18186,0.315239 0.40207,0.67925 0.2202,0.364011 0.40036,0.729914 0.40036,0.813119 v 0.151281 l 0.51087,0.270342 c 0.28097,0.148689 0.79037,0.530945 1.13199,0.849459 l 0.62111,0.579118 0.28652,0.640571 0.2865,0.640571 -0.0462,1.01114 -0.0462,1.011138 -0.35638,0.639995 -0.35638,0.639994 -0.60103,0.503839 c -0.70193,0.588412 -1.42411,0.921717 -2.36276,1.090467 l -0.67288,0.12097 -0.8393,0.703001 -0.83929,0.703 -0.80413,0.253609 -0.80414,0.25361 -1.2062,-0.04604 -1.20619,-0.04604 -0.5517,-0.240124 c -0.30344,-0.132068 -0.72561,-0.36267 -0.93815,-0.512449 l -0.38645,-0.272323 -0.82423,0.126518 -0.82421,0.126517 -0.2484,0.188936 c -0.13662,0.103915 -0.57462,0.315637 -0.97334,0.470495 l -0.72496,0.281559 -0.88287,0.07617 -0.88288,0.07617 -0.55846,0.528113 -0.55847,0.528114 -0.84876,0.385759 -0.84877,0.385761 h -1.27665 -1.27665 l -0.55716,-0.210278 -0.55718,-0.210278 -0.64559,0.266393 -0.64558,0.266394 -1.2062,0.03079 -1.2062,0.03079 z m 2.796716,-0.07647 c 0.29485,-0.06687 0.78889,-0.225744 1.09787,-0.353068 l 0.5618,-0.231499 0.71142,0.25846 0.71142,0.25846 0.96365,0.0017 0.96367,0.0017 0.87209,-0.3599 0.87208,-0.359899 0.54315,-0.517258 c 0.29872,-0.284493 0.54314,-0.55405 0.54314,-0.599016 0,-0.04496 0.43724,-0.105483 0.97165,-0.134483 l 0.97166,-0.05273 0.64758,-0.240669 c 0.35616,-0.132369 0.81831,-0.361109 1.027,-0.508312 l 0.37944,-0.267642 0.93938,-0.07759 0.93937,-0.0776 0.60764,0.388815 c 0.3342,0.213849 0.83645,0.455858 1.11611,0.537798 l 0.5085,0.148983 1.00922,-0.001 1.00924,-0.001 0.76239,-0.312684 0.76238,-0.312682 0.70779,-0.651076 0.70779,-0.651076 0.56732,-0.06169 c 0.31202,-0.03393 0.85324,-0.177722 1.20269,-0.319537 l 0.63539,-0.257845 0.5838,-0.48938 0.58378,-0.48938 0.3241,-0.593471 0.32413,-0.593471 0.0838,-0.672204 0.0838,-0.672204 -0.22715,-0.66633 c -0.35144,-1.03087 -1.34203,-2.103445 -2.22623,-2.410466 l -0.36509,-0.126773 -0.16661,-0.498832 c -0.0917,-0.274358 -0.33943,-0.727266 -0.55064,-1.006463 -0.47557,-0.62862 -0.50918,-0.531525 0.3197,-0.923669 l 0.70375,-0.332943 0.57597,-0.523802 c 0.31678,-0.288092 0.70605,-0.762417 0.86502,-1.054055 l 0.28905,-0.530253 0.006,-1.01114 0.006,-1.011138 -0.37336,-0.639281 -0.37335,-0.639282 -0.72964,-0.559008 -0.72964,-0.559008 -0.63814,-0.174813 c -0.35099,-0.09615 -0.88434,-0.206621 -1.18521,-0.245495 l -0.54705,-0.07069 -0.82377,0.176911 c -1.02349,0.219806 -1.69462,0.568985 -2.41839,1.258272 l -0.56126,0.534505 -0.28182,0.777787 -0.28182,0.777786 -0.48594,-0.09415 c -0.26728,-0.05178 -0.90832,-0.09355 -1.42454,-0.09281 l -0.93859,0.0013 -0.76217,0.312591 -0.76215,0.312591 -0.65758,0.603134 -0.65756,0.603134 -0.29952,0.780863 -0.29951,0.780862 -0.87337,0.06837 -0.87336,0.06837 -0.6905,0.266541 c -0.37976,0.146599 -0.89287,0.426101 -1.14023,0.621119 -0.24737,0.195017 -0.52811,0.354576 -0.62387,0.354576 h -0.17413 l -0.34266,-0.490161 c -0.44523,-0.636855 -1.16495,-1.159098 -2.08291,-1.511395 L 104.18861,54.7291 h -0.9505 -0.95052 l -0.73706,0.282869 c -1.30374,0.500354 -2.122257,1.277963 -2.611097,2.480628 l -0.207508,0.510513 -0.398082,0.13823 c -0.574953,0.19964 -1.307816,0.715113 -1.77691,1.249817 l -0.407518,0.464537 -0.293677,0.853978 -0.29369,0.853978 -0.593859,0.07203 c -0.326632,0.03961 -0.892496,0.19888 -1.257466,0.353921 l -0.663596,0.281891 -0.614321,0.550552 -0.614322,0.550552 -0.298961,0.668411 -0.29895,0.668409 v 0.730267 0.730266 l 0.286525,0.640572 0.286536,0.640571 0.602244,0.56152 0.602243,0.56152 0.735952,0.301842 0.735963,0.301842 0.899459,0.05288 0.899469,0.05288 0.79895,-0.227293 0.79895,-0.227293 0.608277,0.424424 c 1.280447,0.893429 2.624349,1.197068 3.958829,0.894446 z"
       id="path356" /><path
       style="fill:#ffffff;fill-opacity:1"
       d="m 220.83302,630.6303 c -15.55459,-5.4146 -28.3897,-15.3213 -33.81945,-26.10335 -6.03421,-11.98235 -7.76208,-18.496 -7.02558,-26.48473 0.35708,-3.87322 1.11979,-8.61722 1.69492,-10.54222 1.53334,-5.13225 11.60328,-24.92737 18.8222,-37 10.23791,-17.12146 38.90247,-57 40.97141,-57 1.99518,0 29.71081,37.77068 39.39054,53.68118 8.17992,13.44526 15.02891,26.62357 19.07078,36.6945 4.6514,11.58968 4.91446,20.38028 0.91133,30.45376 -7.35585,18.51027 -20.41321,30.59463 -39.65079,36.69615 -6.54516,2.0759 -9.76619,2.47226 -20,2.46103 -10.80185,-0.0118 -13.13338,-0.33885 -20.36536,-2.85632 z M 238.72503,619.75 C 240.66646,617.53665 266.5,567.22983 266.5,565.66254 c 0,-0.81336 -3.32421,-1.16254 -11.06739,-1.16254 -10.07034,0 -11.02088,-0.15766 -10.55122,-1.75 2.1433,-7.26657 8.75104,-37.4509 8.29772,-37.90422 -0.31299,-0.31299 -7.34383,-0.8092 -15.62409,-1.10269 -13.56666,-0.48086 -15.05502,-0.36974 -15.05502,1.12407 0,0.91825 2.47886,3.24339 5.55722,5.21259 3.05648,1.95521 5.80424,4.19861 6.10614,4.98536 0.3019,0.78674 -2.63807,10.09394 -6.53326,20.68266 -3.89519,10.58873 -7.36674,20.48973 -7.71454,22.00223 l -0.63238,2.75 h 11.23925 11.23925 l -0.55955,3.25 c -0.30775,1.7875 -1.71663,9.76363 -3.13084,17.72473 -3.46277,19.49318 -3.34332,22.83216 0.65374,18.27527 z"
       id="path357"
       transform="scale(0.26458333)" /><path
       style="fill:#ffffff;fill-opacity:1"
       d="m 514,599.01841 c -21.07785,-5.69088 -37.00085,-18.47179 -46.00836,-36.92952 -13.24611,-27.14324 -8.53241,-57.26417 12.35645,-78.95882 11.05474,-11.48117 24.97069,-18.36709 42.19084,-20.87696 6.7358,-0.98175 9.26455,-0.89102 17.11612,0.61411 20.80724,3.9887 36.0819,13.88871 46.94334,30.42552 10.44389,15.9011 13.96373,33.30823 10.31097,50.99235 -5.57151,26.97341 -24.95414,47.57668 -51.0326,54.24643 -9.06214,2.3177 -24.23731,2.54949 -31.87676,0.48689 z m 31.35055,-16.61147 c 17.76128,-5.75157 30.91833,-19.92019 35.62783,-38.36704 6.00075,-23.5046 -6.54569,-50.58103 -28.14981,-60.75001 -15.78086,-7.42799 -31.6392,-7.3706 -46.93692,0.16988 -6.20308,3.05759 -9.63757,5.61777 -14.61626,10.89545 -10.39684,11.02119 -14.74241,21.97476 -14.76352,37.21328 -0.0311,22.44219 12.48551,40.81843 33.98813,49.89964 9.09005,3.839 24.60398,4.25692 34.85055,0.9388 z"
       id="path358"
       transform="scale(0.26458333)" /><path
       style="fill:#ffffff;fill-opacity:1"
       d="m 621,645.5988 c -1.65,-1.04155 -12.6676,-11.61139 -24.48355,-23.48853 l -21.48355,-21.5948 2.48355,-1.67155 c 3.23522,-2.17746 16.065,-15.04941 18.55674,-18.61774 l 1.93694,-2.77381 22.63976,22.77381 c 21.3399,21.46627 22.69792,23.05434 23.65267,27.65961 1.11088,5.35837 -0.30446,11.27163 -3.57889,14.95258 -4.19567,4.71656 -14.36919,6.1404 -19.72367,2.76043 z"
       id="path359"
       transform="scale(0.26458333)" /><path
       style="fill:#ffffff;fill-opacity:1"
       d="m 489.51187,528.75 c 0.007,-0.9625 0.6289,-4.06741 1.38306,-6.89981 4.29646,-16.13634 17.24614,-27.83154 33.24496,-30.02442 L 528.5,491.22815 v 5.13593 5.13592 h -3.30366 c -10.87278,0 -25.69634,15.38993 -25.69634,26.67814 0,2.11957 -0.43563,2.32186 -5,2.32186 -4.09976,0 -4.99786,-0.31508 -4.98813,-1.75 z"
       id="path360"
       transform="scale(0.26458333)" /><path
       style="fill:#ffffff;fill-opacity:1"
       d="m 326.5,361.24943 c 0,-0.13782 4.95,-17.57506 11,-38.74943 6.05,-21.17437 11,-39.92672 11,-41.67188 0,-2.72395 -0.48283,-3.33236 -3.41157,-4.29894 C 341.21671,275.2514 340.5,273.97789 340.5,268.37606 v -3.96037 l 4.41573,2.58779 c 5.78071,3.38772 9.87436,4.52552 16.58427,4.60947 3.025,0.0378 8.09036,0.93366 11.25636,1.9907 5.07275,1.69365 7.62604,1.85158 21.5,1.32985 15.30831,-0.57568 15.94132,-0.68677 22.89295,-4.01764 3.93212,-1.88407 8.57551,-3.71082 10.31864,-4.05945 3.16024,-0.63205 3.16841,-0.62275 2.85069,3.24163 -0.25536,3.10583 -0.95643,4.27532 -3.53012,5.88873 -1.76631,1.10728 -3.22881,2.66074 -3.25,3.45215 -0.0293,1.09523 14.18387,52.29358 21.87878,78.81108 l 0.94309,3.25 h -59.9302 C 353.46859,361.5 326.5,361.38724 326.5,361.24943 Z"
       id="path361"
       transform="scale(0.26458333)" /><path
       style="fill:#ffffff;fill-opacity:1"
       d="m 379.8582,264.52125 c -1.728,-0.39842 -4.69022,-1.68136 -6.58272,-2.85099 -2.85969,-1.76739 -4.01702,-1.96138 -6.85159,-1.14843 -5.08005,1.45694 -7.8193,1.20721 -12.70588,-1.15834 -6.04249,-2.92512 -8.44928,-6.97628 -7.90241,-13.30147 0.35587,-4.116 1.02541,-5.48643 4.02226,-8.23283 2.24299,-2.05556 5.08934,-3.53377 7.56736,-3.93003 3.42571,-0.54779 4.17888,-1.15207 5.47579,-4.39337 0.82706,-2.06703 2.91435,-4.82643 4.63843,-6.13201 3.98356,-3.01659 6.84314,-5.87959 9.91148,-9.92333 2.91588,-3.84282 7.54765,-5.95045 13.0768,-5.95045 4.62667,0 11.4026,3.08291 13.23902,6.02348 1.47239,2.35768 3.5409,2.51399 6.43579,0.48633 1.17015,-0.81961 4.46262,-1.99097 7.31659,-2.60304 4.51902,-0.96916 5.37191,-1.55052 6.60531,-4.50248 0.80532,-1.92738 3.21502,-4.57909 5.58597,-6.14695 3.46085,-2.2886 5.25824,-2.75734 10.57304,-2.75734 6.20659,0 6.44327,-0.0948 7.70223,-3.08481 3.77136,-8.95696 17.24275,-12.03253 25.62294,-5.84981 4.31394,3.18272 5.83177,5.97668 5.87595,10.8162 0.0299,3.27735 -0.62675,4.52267 -4.21846,8 -2.33965,2.26513 -5.08639,4.57598 -6.10386,5.13523 -1.77307,0.97453 -1.75349,1.18237 0.47092,5 1.27649,2.19075 2.68985,4.13873 3.14081,4.32884 2.47357,1.04276 7.19248,5.97861 8.33881,8.72216 2.82175,6.75341 -3.00303,15.83084 -10.97822,17.1086 -2.13698,0.34239 -5.32822,1.8893 -7.09162,3.43759 -6.06055,5.32124 -13.22179,6.35342 -20.02294,2.886 -4.65252,-2.37199 -9.6967,-2.57245 -12.84375,-0.51042 -1.25037,0.81927 -4.69862,1.94952 -7.66278,2.51166 -2.96416,0.56214 -6.31894,1.89535 -7.45507,2.96269 -4.74258,4.45542 -13.68343,6.294 -18.94629,3.89608 -1.79859,-0.81949 -3.28779,-0.84234 -5.29705,-0.0813 -4.40332,1.66787 -7.54433,2.02472 -10.93686,1.24252 z"
       id="path362"
       transform="scale(0.26458333)" /></g></svg>
